G04*
G04 #@! TF.GenerationSoftware,Altium Limited,Altium Designer,21.3.2 (30)*
G04*
G04 Layer_Color=8388736*
%FSLAX25Y25*%
%MOIN*%
G70*
G04*
G04 #@! TF.SameCoordinates,0F953CDF-2D95-4BA3-9E95-2DF240EAF7FD*
G04*
G04*
G04 #@! TF.FilePolarity,Negative*
G04*
G01*
G75*
%ADD18R,0.10642X0.07493*%
G04:AMPARAMS|DCode=19|XSize=48mil|YSize=128.08mil|CornerRadius=14mil|HoleSize=0mil|Usage=FLASHONLY|Rotation=0.000|XOffset=0mil|YOffset=0mil|HoleType=Round|Shape=RoundedRectangle|*
%AMROUNDEDRECTD19*
21,1,0.04800,0.10008,0,0,0.0*
21,1,0.02000,0.12808,0,0,0.0*
1,1,0.02800,0.01000,-0.05004*
1,1,0.02800,-0.01000,-0.05004*
1,1,0.02800,-0.01000,0.05004*
1,1,0.02800,0.01000,0.05004*
%
%ADD19ROUNDEDRECTD19*%
%ADD20R,0.36233X0.40170*%
%ADD21R,0.06115X0.05328*%
%ADD22R,0.12217X0.22060*%
%ADD23O,0.09068X0.06312*%
G04:AMPARAMS|DCode=24|XSize=165.48mil|YSize=165.48mil|CornerRadius=43.37mil|HoleSize=0mil|Usage=FLASHONLY|Rotation=0.000|XOffset=0mil|YOffset=0mil|HoleType=Round|Shape=RoundedRectangle|*
%AMROUNDEDRECTD24*
21,1,0.16548,0.07874,0,0,0.0*
21,1,0.07874,0.16548,0,0,0.0*
1,1,0.08674,0.03937,-0.03937*
1,1,0.08674,-0.03937,-0.03937*
1,1,0.08674,-0.03937,0.03937*
1,1,0.08674,0.03937,0.03937*
%
%ADD24ROUNDEDRECTD24*%
%ADD25C,0.05800*%
D18*
X439348Y245600D02*
D03*
X423600D02*
D03*
D19*
X438614Y271590D02*
D03*
X452016D02*
D03*
X445315D02*
D03*
X431913D02*
D03*
X425213D02*
D03*
D20*
X438500Y308500D02*
D03*
D21*
X478200Y320900D02*
D03*
Y327790D02*
D03*
X478000Y302655D02*
D03*
Y309545D02*
D03*
D22*
X479206Y263400D02*
D03*
X517394D02*
D03*
D23*
X388800Y286579D02*
D03*
Y272800D02*
D03*
X509600Y322580D02*
D03*
Y308800D02*
D03*
D24*
X540000Y324400D02*
D03*
X380200Y323300D02*
D03*
X543500Y248700D02*
D03*
X380400Y248200D02*
D03*
D25*
X464800Y321200D02*
D03*
X465100Y264700D02*
D03*
M02*
