G04*
G04 #@! TF.GenerationSoftware,Altium Limited,Altium Designer,21.3.2 (30)*
G04*
G04 Layer_Color=32896*
%FSLAX25Y25*%
%MOIN*%
G70*
G04*
G04 #@! TF.SameCoordinates,0F953CDF-2D95-4BA3-9E95-2DF240EAF7FD*
G04*
G04*
G04 #@! TF.FilePolarity,Positive*
G04*
G01*
G75*
%ADD12C,0.01000*%
D12*
X531844Y242736D02*
X530532D01*
X529876Y242080D01*
Y240112D01*
X531844D01*
X532500Y240768D01*
X531844Y241424D01*
X529876D01*
X528564Y240112D02*
X527252D01*
X527908D01*
Y244048D01*
X528564D01*
X524628Y240112D02*
Y243392D01*
Y242080D01*
X525284D01*
X523973D01*
X524628D01*
Y243392D01*
X523973Y244048D01*
X521349Y242736D02*
X520037D01*
X519381Y242080D01*
Y240112D01*
X521349D01*
X522005Y240768D01*
X521349Y241424D01*
X519381D01*
X515445Y244048D02*
Y240112D01*
X517413D01*
X518069Y240768D01*
Y242080D01*
X517413Y242736D01*
X515445D01*
X513477D02*
X512165D01*
X511509Y242080D01*
Y240112D01*
X513477D01*
X514133Y240768D01*
X513477Y241424D01*
X511509D01*
X509542Y243392D02*
Y242736D01*
X510197D01*
X508886D01*
X509542D01*
Y240768D01*
X508886Y240112D01*
X506262Y242736D02*
X504950D01*
X504294Y242080D01*
Y240112D01*
X506262D01*
X506918Y240768D01*
X506262Y241424D01*
X504294D01*
X502982Y243392D02*
X502326Y244048D01*
X501014D01*
X500358Y243392D01*
Y240768D01*
X501014Y240112D01*
X502326D01*
X502982Y240768D01*
Y243392D01*
X496422Y244048D02*
X497734Y243392D01*
X499046Y242080D01*
Y240768D01*
X498390Y240112D01*
X497078D01*
X496422Y240768D01*
Y241424D01*
X497078Y242080D01*
X499046D01*
X493143Y241424D02*
Y242080D01*
X493799D01*
Y241424D01*
X493143D01*
X492487Y242080D01*
Y243392D01*
X493143Y244048D01*
X494454D01*
X495111Y243392D01*
Y240768D01*
X494454Y240112D01*
X492487D01*
X489863Y238800D02*
X489207D01*
X488551Y239456D01*
Y242736D01*
X490519D01*
X491175Y242080D01*
Y240768D01*
X490519Y240112D01*
X488551D01*
X487239D02*
Y242736D01*
X486583D01*
X485927Y242080D01*
Y240112D01*
Y242080D01*
X485271Y242736D01*
X484615Y242080D01*
Y240112D01*
X482647Y242736D02*
X481335D01*
X480679Y242080D01*
Y240112D01*
X482647D01*
X483303Y240768D01*
X482647Y241424D01*
X480679D01*
X479367Y240112D02*
X478056D01*
X478712D01*
Y242736D01*
X479367D01*
X476088Y240112D02*
X474776D01*
X475432D01*
Y244048D01*
X476088D01*
X472808Y240112D02*
Y240768D01*
X472152D01*
Y240112D01*
X472808D01*
X466904Y242736D02*
X468872D01*
X469528Y242080D01*
Y240768D01*
X468872Y240112D01*
X466904D01*
X464936D02*
X463625D01*
X462969Y240768D01*
Y242080D01*
X463625Y242736D01*
X464936D01*
X465592Y242080D01*
Y240768D01*
X464936Y240112D01*
X461657D02*
Y242736D01*
X461001D01*
X460345Y242080D01*
Y240112D01*
Y242080D01*
X459689Y242736D01*
X459033Y242080D01*
Y240112D01*
X532500Y268200D02*
Y271349D01*
X530926D01*
X530401Y270824D01*
Y269774D01*
X530926Y269250D01*
X532500D01*
X531451D02*
X530401Y268200D01*
X527252D02*
X529351D01*
X527252Y270299D01*
Y270824D01*
X527777Y271349D01*
X528827D01*
X529351Y270824D01*
X523054Y269250D02*
X520955D01*
X523054Y270299D02*
X520955D01*
X516757Y268200D02*
Y271349D01*
X515183D01*
X514658Y270824D01*
Y269774D01*
X515183Y269250D01*
X516757D01*
X515707D02*
X514658Y268200D01*
X513609D02*
X512559D01*
X513084D01*
Y271349D01*
X513609Y270824D01*
X509935Y268200D02*
X510985Y269250D01*
Y270299D01*
X509935Y271349D01*
X508361D02*
Y269250D01*
X507311Y268200D01*
X506262Y269250D01*
Y271349D01*
X503638D02*
X504687D01*
X505212Y270824D01*
Y268725D01*
X504687Y268200D01*
X503638D01*
X503113Y268725D01*
Y270824D01*
X503638Y271349D01*
X502064D02*
Y268725D01*
X501539Y268200D01*
X500489D01*
X499965Y268725D01*
Y271349D01*
X498915D02*
X496816D01*
X497865D01*
Y268200D01*
X495766D02*
X493667Y270299D01*
X492618Y268200D02*
X491568D01*
X492093D01*
Y271349D01*
X492618Y270824D01*
X489994Y268200D02*
Y268725D01*
X489469D01*
Y268200D01*
X489994D01*
X485271D02*
X487370D01*
X485271Y270299D01*
Y270824D01*
X485796Y271349D01*
X486845D01*
X487370Y270824D01*
X484222D02*
X483697Y271349D01*
X482647D01*
X482123Y270824D01*
Y270299D01*
X482647Y269774D01*
X483172D01*
X482647D01*
X482123Y269250D01*
Y268725D01*
X482647Y268200D01*
X483697D01*
X484222Y268725D01*
X481073Y268200D02*
X480023Y269250D01*
Y270299D01*
X481073Y271349D01*
X532500Y251636D02*
Y247700D01*
X530532D01*
X529876Y248356D01*
Y249012D01*
X530532Y249668D01*
X532500D01*
X530532D01*
X529876Y250324D01*
Y250980D01*
X530532Y251636D01*
X532500D01*
X527908Y250324D02*
X526596D01*
X525940Y249668D01*
Y247700D01*
X527908D01*
X528564Y248356D01*
X527908Y249012D01*
X525940D01*
X523973Y250980D02*
Y250324D01*
X524628D01*
X523317D01*
X523973D01*
Y248356D01*
X523317Y247700D01*
X521349Y250324D02*
Y248356D01*
X520693Y247700D01*
X518725D01*
Y250324D01*
X517413Y251636D02*
Y247700D01*
Y249668D01*
X516757Y250324D01*
X515445D01*
X514789Y249668D01*
Y247700D01*
X512821Y250324D02*
X511509D01*
X510853Y249668D01*
Y247700D01*
X512821D01*
X513477Y248356D01*
X512821Y249012D01*
X510853D01*
X509542Y247700D02*
Y250324D01*
X507574D01*
X506918Y249668D01*
Y247700D01*
X499046Y251636D02*
X501670D01*
Y247700D01*
X499046D01*
X501670Y249668D02*
X500358D01*
X497734Y250324D02*
Y247700D01*
Y249012D01*
X497078Y249668D01*
X496422Y250324D01*
X495766D01*
X493799Y251636D02*
Y247700D01*
X491831D01*
X491175Y248356D01*
Y249012D01*
Y249668D01*
X491831Y250324D01*
X493799D01*
X489863Y247700D02*
X488551D01*
X489207D01*
Y250324D01*
X489863D01*
X486583Y247700D02*
X485271D01*
X485927D01*
Y251636D01*
X486583D01*
X530401Y295624D02*
X530926Y296149D01*
X531975D01*
X532500Y295624D01*
Y293525D01*
X531975Y293000D01*
X530926D01*
X530401Y293525D01*
X528827Y293000D02*
X527777D01*
X527252Y293525D01*
Y294574D01*
X527777Y295099D01*
X528827D01*
X529351Y294574D01*
Y293525D01*
X528827Y293000D01*
X526203Y295099D02*
Y293525D01*
X525678Y293000D01*
X524104D01*
Y295099D01*
X522530Y295624D02*
Y295099D01*
X523054D01*
X522005D01*
X522530D01*
Y293525D01*
X522005Y293000D01*
X517282Y294050D02*
X515183D01*
X517282Y295099D02*
X515183D01*
X508886Y293000D02*
X510985D01*
X508886Y295099D01*
Y295624D01*
X509410Y296149D01*
X510460D01*
X510985Y295624D01*
X505737Y293000D02*
X507836D01*
X505737Y295099D01*
Y295624D01*
X506262Y296149D01*
X507311D01*
X507836Y295624D01*
X504687D02*
X504163Y296149D01*
X503113D01*
X502588Y295624D01*
Y293525D01*
X503113Y293000D01*
X504163D01*
X504687Y293525D01*
Y295624D01*
X501539Y295099D02*
Y293525D01*
X501014Y293000D01*
X499440D01*
Y295099D01*
X496291Y296149D02*
X498390D01*
Y294574D01*
X497341D01*
X498390D01*
Y293000D01*
X530401Y303724D02*
X530926Y304249D01*
X531975D01*
X532500Y303724D01*
Y301625D01*
X531975Y301100D01*
X530926D01*
X530401Y301625D01*
X529351Y301100D02*
X528302D01*
X528827D01*
Y303199D01*
X529351D01*
X526728Y301100D02*
Y303199D01*
X525153D01*
X524628Y302674D01*
Y301100D01*
X520430Y302150D02*
X518331D01*
X520430Y303199D02*
X518331D01*
X514133Y301100D02*
X513084D01*
X513608D01*
Y304249D01*
X514133Y303724D01*
X511509D02*
X510985Y304249D01*
X509935D01*
X509410Y303724D01*
Y301625D01*
X509935Y301100D01*
X510985D01*
X511509Y301625D01*
Y303724D01*
X508361D02*
X507836Y304249D01*
X506786D01*
X506262Y303724D01*
Y301625D01*
X506786Y301100D01*
X507836D01*
X508361Y301625D01*
Y303724D01*
X505212Y303199D02*
Y301625D01*
X504687Y301100D01*
X503113D01*
Y303199D01*
X499965Y304249D02*
X502064D01*
Y302674D01*
X501014D01*
X502064D01*
Y301100D01*
X532500Y288949D02*
Y285800D01*
X530401D01*
X526203Y286849D02*
X524104D01*
X526203Y287899D02*
X524104D01*
X519906Y288424D02*
X519381Y288949D01*
X518331D01*
X517807Y288424D01*
Y287899D01*
X518331Y287374D01*
X518856D01*
X518331D01*
X517807Y286849D01*
Y286325D01*
X518331Y285800D01*
X519381D01*
X519906Y286325D01*
X516757Y288424D02*
X516232Y288949D01*
X515183D01*
X514658Y288424D01*
Y287899D01*
X515183Y287374D01*
X515707D01*
X515183D01*
X514658Y286849D01*
Y286325D01*
X515183Y285800D01*
X516232D01*
X516757Y286325D01*
X513609Y287899D02*
Y286325D01*
X513084Y285800D01*
X511509D01*
Y287899D01*
X510460Y288949D02*
Y285800D01*
Y287374D01*
X508361D01*
Y288949D01*
Y285800D01*
X532500Y277500D02*
Y280649D01*
X530926D01*
X530401Y280124D01*
Y279074D01*
X530926Y278550D01*
X532500D01*
X531451D02*
X530401Y277500D01*
X529351D02*
X528302D01*
X528827D01*
Y280649D01*
X529351Y280124D01*
X523579Y278550D02*
X521480D01*
X523579Y279599D02*
X521480D01*
X515183Y280649D02*
X517282D01*
Y279074D01*
X516232Y279599D01*
X515707D01*
X515183Y279074D01*
Y278025D01*
X515707Y277500D01*
X516757D01*
X517282Y278025D01*
X514133Y280649D02*
Y277500D01*
Y278550D01*
X512034Y280649D01*
X513608Y279074D01*
X512034Y277500D01*
M02*
