G04*
G04 #@! TF.GenerationSoftware,Altium Limited,Altium Designer,21.3.2 (30)*
G04*
G04 Layer_Color=32768*
%FSLAX25Y25*%
%MOIN*%
G70*
G04*
G04 #@! TF.SameCoordinates,0F953CDF-2D95-4BA3-9E95-2DF240EAF7FD*
G04*
G04*
G04 #@! TF.FilePolarity,Positive*
G04*
G01*
G75*
%ADD30C,0.00394*%
%ADD32C,0.00197*%
D30*
X429505Y245600D02*
X433442D01*
X431474Y243632D02*
Y247568D01*
X388800Y279690D02*
X393721D01*
X388800D02*
Y284611D01*
X383879Y279690D02*
X388800D01*
Y274768D02*
Y279690D01*
X416354Y262732D02*
Y332122D01*
Y262732D02*
X460646D01*
Y332122D01*
X416354D02*
X460646D01*
X434677Y296935D02*
X438614D01*
Y296935D02*
Y300872D01*
Y296935D02*
X442551D01*
X438614Y292998D02*
Y296935D01*
X509600Y315690D02*
X514521D01*
X509600D02*
Y320611D01*
X504679Y315690D02*
X509600D01*
Y310769D02*
Y315690D01*
X476231Y324345D02*
X480168D01*
X478200Y322376D02*
Y326313D01*
X496332Y263400D02*
X500269D01*
X498300Y261432D02*
Y265369D01*
X476031Y306100D02*
X479969D01*
X478000Y304132D02*
Y308068D01*
D32*
X445474Y238710D02*
Y252490D01*
X417474Y238710D02*
Y252490D01*
Y238710D02*
X445474D01*
X417474Y252490D02*
X445474D01*
X372265Y296225D02*
X405335D01*
Y263154D02*
Y296225D01*
X372265Y263154D02*
X405335D01*
X372265D02*
Y296225D01*
X493065Y332225D02*
X526135D01*
Y299154D02*
Y332225D01*
X493065Y299154D02*
X526135D01*
X493065D02*
Y332225D01*
X474460Y317652D02*
Y331038D01*
X481940Y317652D02*
Y331038D01*
X474460Y317652D02*
X481940D01*
X474460Y331038D02*
X481940D01*
X469855Y237219D02*
Y289581D01*
X526745Y237219D02*
Y289581D01*
X469855D02*
X526745D01*
X469855Y237219D02*
X526745D01*
X474260Y299407D02*
Y312793D01*
X481740Y299407D02*
Y312793D01*
X474260Y299407D02*
X481740D01*
X474260Y312793D02*
X481740D01*
M02*
